<svg xmlns="http://www.w3.org/2000/svg" xmlns:xlink="http://www.w3.org/1999/xlink" viewBox="0,0,256,256" width="26px" height="26px"><g fill-opacity="0.63922" fill="#2a3742" fill-rule="nonzero" stroke="none" stroke-width="1" stroke-linecap="butt" stroke-linejoin="miter" stroke-miterlimit="10" stroke-dasharray="" stroke-dashoffset="0" font-family="none" font-weight="none" font-size="none" text-anchor="none" style="mix-blend-mode: normal"><g transform="scale(9.84615,9.84615)"><path d="M17.625,0.1875c-1.67969,0 -3.24219,0.67969 -4.53125,1.96875c-1.46484,1.46484 -2.13281,3.26563 -1.9375,5.1875c0.14844,1.42969 0.79688,2.86719 1.84375,4.15625l-7.25,7.25l-1.3125,-1.3125c-0.64062,-0.64062 -1.17187,-0.10937 -1.8125,0.53125l-0.625,0.65625c-0.64062,0.64063 -1.17187,1.14063 -0.53125,1.78125l1.3125,1.3125l-1.03125,1.03125c-0.64062,0.64063 -0.64062,1.67188 0,2.3125c0.64063,0.64063 1.67188,0.64063 2.3125,0l11.375,-11.375c1.23047,0.77344 2.57031,1.1875 3.875,1.1875c1.67578,0 3.24219,-0.67969 4.53125,-1.96875c1.46484,-1.46484 2.13281,-3.26172 1.9375,-5.1875c-0.17578,-1.73047 -1.09375,-3.47266 -2.5625,-4.9375c-1.66406,-1.66406 -3.64453,-2.59375 -5.59375,-2.59375zM17.6875,2.25c1.39453,0 2.83984,0.71094 4.09375,1.96875c1.11328,1.11328 1.80859,2.39844 1.9375,3.65625c0.13281,1.30469 -0.32422,2.54297 -1.34375,3.5625c-0.91406,0.91016 -1.97656,1.375 -3.125,1.375c-1.39453,0 -2.83984,-0.71094 -4.09375,-1.96875c-1.11328,-1.10937 -1.80859,-2.39844 -1.9375,-3.65625c-0.13281,-1.30469 0.32422,-2.54297 1.34375,-3.5625c0.91016,-0.91016 1.97266,-1.375 3.125,-1.375z"></path></g></g></svg>