<?xml version="1.0" encoding="UTF-8" standalone="no"?>
<!-- Created with Inkscape (http://www.inkscape.org/) -->

<svg
   version="1.1"
   id="svg2"
   width="596.02667"
   height="500.66666"
   viewBox="0 0 596.02667 500.66666"
   sodipodi:docname="Internet go.eps"
   xmlns:inkscape="http://www.inkscape.org/namespaces/inkscape"
   xmlns:sodipodi="http://sodipodi.sourceforge.net/DTD/sodipodi-0.dtd"
   xmlns="http://www.w3.org/2000/svg"
   xmlns:svg="http://www.w3.org/2000/svg">
  <defs
     id="defs6" />
  <sodipodi:namedview
     id="namedview4"
     pagecolor="#ffffff"
     bordercolor="#000000"
     borderopacity="0.25"
     inkscape:showpageshadow="2"
     inkscape:pageopacity="0.0"
     inkscape:pagecheckerboard="0"
     inkscape:deskcolor="#d1d1d1" />
  <g
     id="g8"
     inkscape:groupmode="layer"
     inkscape:label="ink_ext_XXXXXX"
     transform="matrix(1.3333333,0,0,-1.3333333,0,500.66667)">
    <g
       id="g10"
       transform="scale(0.1)">
      <path
         d="M 654.645,341.992 C 1527.5,-114 2942.68,-114.012 3815.52,341.98 c 872.85,456 872.85,1195.29 0,1651.27 -872.86,455.99 -2288.03,455.99 -3160.883,0.02 -872.848,-455.99 -872.848,-1195.29 0.008,-1651.278"
         style="fill:#f3f2f1;fill-opacity:1;fill-rule:nonzero;stroke:none"
         id="path12" />
      <path
         d="m 3378.62,1131.39 c 103.54,-49.35 271.41,-49.35 374.95,0 103.54,49.34 103.54,129.35 0,178.7 -103.54,49.34 -271.41,49.34 -374.95,0 -103.54,-49.35 -103.54,-129.36 0,-178.7"
         style="fill:#e2e2e0;fill-opacity:1;fill-rule:nonzero;stroke:none"
         id="path14" />
      <path
         d="m 3591.23,3420.31 37.96,-14.6 v 83.62 c 0,66.29 52.87,82.18 110.27,49.04 57.4,-33.14 103.94,-113.74 103.94,-180.03 v -12.14 c 13.02,5.19 29.85,3.18 48.24,-7.44 41.31,-23.85 74.79,-81.85 74.79,-129.55 v -5.52 l 52.92,-30.55 c 27.21,-15.71 49.26,-53.91 49.26,-85.32 0,-31.41 -22.05,-44.14 -49.26,-28.44 l -428.12,247.18 c -27.21,15.71 -49.26,53.9 -49.26,85.32 0,31.41 22.05,44.14 49.26,28.43"
         style="fill:#ededeb;fill-opacity:1;fill-rule:nonzero;stroke:none"
         id="path16" />
      <path
         d="m 597.395,823.648 70.125,40.071 c 0,0 33.636,185.371 8.484,344.701 -35.367,224.03 -187.902,301.3 -243.297,279.04 -55.402,-22.28 -68.422,-88.64 31.625,-218.08 59.031,-76.38 134.953,-237.82 133.063,-445.732"
         style="fill:#26b6a6;fill-opacity:1;fill-rule:nonzero;stroke:none"
         id="path18" />
      <path
         d="m 597.395,823.648 c 0.023,2.641 0.035,5.274 0.035,7.891 -0.067,204.101 -74.813,362.431 -133.098,437.841 -53.051,68.64 -74.309,119.54 -74.316,155.54 -0.004,31.88 16.668,52.07 42.691,62.54 6.039,2.43 13.231,3.67 21.305,3.67 65.961,0 190.48,-83.12 221.992,-282.71 6.851,-43.41 9.34,-88.75 9.336,-131.76 -0.016,-114.82 -17.82,-212.941 -17.82,-212.941 l -70.125,-40.071"
         style="fill:#1db3a0;fill-opacity:1;fill-rule:nonzero;stroke:none"
         id="path20" />
      <path
         d="m 629.16,892.91 -0.418,0.012 c -3.844,0.219 -6.781,3.508 -6.558,7.367 16.242,279.041 -37.067,444.191 -178.211,552.211 -3.059,2.35 -3.657,6.72 -1.313,9.78 2.356,3.07 6.75,3.63 9.785,1.31 145.278,-111.19 200.207,-279.89 183.668,-564.121 -0.215,-3.699 -3.289,-6.559 -6.953,-6.559"
         style="fill:#ffffff;fill-opacity:1;fill-rule:nonzero;stroke:none"
         id="path22" />
      <path
         d="m 402.816,711.25 c -11.078,-6.371 -33.914,7.551 -42.664,13.41 -14.976,10.051 -27.109,24.281 -35.172,40.379 -9.378,18.731 -11.742,38.793 -8.808,59.52 1.523,10.742 4.531,21.211 7.531,31.652 2.942,10.23 5.887,20.48 8.832,30.711 2.906,10.109 5.836,20.558 4.5,30.988 -2.683,21.012 -21.336,35.731 -38.289,48.422 -18.75,14.047 -38.273,32.566 -38.164,57.868 0.082,19.52 10.184,37.64 22.281,52.95 12.094,15.33 26.45,28.86 37.375,45.02 7.871,11.64 14.012,25.32 12.731,39.31 -0.789,8.69 -4.399,16.89 -8.559,24.56 -8.93,16.47 -20.715,31.55 -26.875,49.25 -6.156,17.68 -5.281,39.7 8.524,52.35 11.339,10.39 28.179,11.85 43.527,10.83 14.195,-0.93 28.062,-7.34 40.477,-14.25 40.16,-22.33 63.078,-69.89 105.691,-87.07 16.434,-6.63 34.441,-8.07 51.574,-12.6 17.137,-4.53 34.602,-13.28 42.535,-29.12 15.645,-31.25 -13.386,-69.75 -2.39,-102.91 9.73,-29.36 38.25,-40.59 54.265,-67.04 7.004,-11.57 8.617,-24.941 7.492,-38.421 -1.914,-22.809 -5.253,-39.547 -16.203,-64.918 C 623.98,861.18 597.395,823.648 597.395,823.648 596.73,822.992 404.516,712.219 402.816,711.25"
         style="fill:#26b6a6;fill-opacity:1;fill-rule:nonzero;stroke:none"
         id="path24" />
      <path
         d="m 517.617,770.609 -0.887,0.051 c -3.82,0.481 -6.535,3.969 -6.046,7.801 20.273,160.75 -56.387,377.509 -170.875,483.189 -2.84,2.6 -3.012,7.02 -0.399,9.84 2.625,2.85 7.024,3.02 9.856,0.4 119.398,-110.19 196.382,-327.699 175.261,-495.179 -0.445,-3.52 -3.441,-6.102 -6.91,-6.102"
         style="fill:#ffffff;fill-opacity:1;fill-rule:nonzero;stroke:none"
         id="path26" />
      <path
         d="m 497.629,980.379 c -1.465,0 -2.938,0.461 -4.188,1.391 -61.062,45.8 -158.441,37.45 -159.39,37.36 -3.844,-0.45 -7.231,2.47 -7.586,6.31 -0.352,3.82 2.465,7.22 6.308,7.57 4.231,0.41 103.743,8.92 169.036,-40.069 3.089,-2.312 3.714,-6.679 1.402,-9.761 -1.367,-1.84 -3.469,-2.801 -5.582,-2.801"
         style="fill:#ffffff;fill-opacity:1;fill-rule:nonzero;stroke:none"
         id="path28" />
      <path
         d="m 487.902,1020.57 -0.273,0.01 c -3.856,0.15 -6.852,3.39 -6.695,7.25 3.125,80.43 62.035,127.41 64.546,129.38 3.047,2.34 7.422,1.82 9.786,-1.19 2.371,-3.04 1.839,-7.42 -1.184,-9.8 -0.57,-0.44 -56.328,-45.13 -59.219,-118.94 -0.136,-3.77 -3.234,-6.71 -6.961,-6.71"
         style="fill:#ffffff;fill-opacity:1;fill-rule:nonzero;stroke:none"
         id="path30" />
      <path
         d="m 3720.34,1373.77 c 2.82,35.05 29.84,94.85 69.87,137.45 40.04,42.59 104.08,63.1 143.59,45.94 36.8,-15.99 28.71,-65.3 -19.85,-94.5 -48.55,-29.21 -120.88,-64.98 -145.64,-120.21 l -47.97,-66.37 v 97.69"
         style="fill:#26b6a6;fill-opacity:1;fill-rule:nonzero;stroke:none"
         id="path32" />
      <path
         d="m 3720.34,1276.08 v 97.69 c 2.82,35.05 29.84,94.85 69.87,137.45 30.45,32.38 74.77,52 111.64,52 11.61,0 22.49,-1.94 31.95,-6.06 15.38,-6.68 22.92,-19.19 22.94,-33.61 0.03,-20.09 -14.53,-43.89 -42.79,-60.89 -48.55,-29.21 -120.88,-64.98 -145.64,-120.21 l -47.97,-66.37"
         style="fill:#1db3a0;fill-opacity:1;fill-rule:nonzero;stroke:none"
         id="path34" />
      <path
         d="m 3720.34,1309.83 -0.65,0.03 c -2.62,0.37 -4.48,2.78 -4.13,5.41 17.5,129.78 149.43,220.09 201.87,230.08 2.61,0.53 5.12,-1.23 5.61,-3.82 0.51,-2.62 -1.21,-5.14 -3.81,-5.63 -48.91,-9.3 -177.51,-98.6 -194.13,-221.91 -0.32,-2.41 -2.39,-4.16 -4.76,-4.16"
         style="fill:#ffffff;fill-opacity:1;fill-rule:nonzero;stroke:none"
         id="path36" />
      <path
         d="m 3725.58,1229.04 c 7.22,19.26 33.9,49.83 74.99,73.56 45.45,26.25 101.05,35.54 115.47,57.66 17.32,26.56 -3.98,54.7 -48.66,52.76 -44.67,-1.92 -127.31,-56.02 -147.04,-145.88 l 5.24,-38.1"
         style="fill:#26b6a6;fill-opacity:1;fill-rule:nonzero;stroke:none"
         id="path38" />
      <path
         d="m 3722.4,1247.66 -0.94,0.09 c -2.61,0.53 -4.3,3.06 -3.78,5.65 13.24,66.54 109.73,135.47 172.06,138.36 2.44,-0.02 4.91,-1.92 5.03,-4.58 0.12,-2.64 -1.92,-4.9 -4.58,-5.03 -57.87,-2.67 -150.82,-68.99 -163.08,-130.62 -0.45,-2.3 -2.46,-3.87 -4.71,-3.87"
         style="fill:#ffffff;fill-opacity:1;fill-rule:nonzero;stroke:none"
         id="path40" />
      <path
         d="m 2020.85,824.602 v -4.024 c 0,-6.418 4.51,-14.238 10.08,-17.449 L 2625.25,460 c 5.57,-3.219 14.59,-3.219 20.16,0 l 877.93,506.859 c 5.56,3.211 10.07,11.032 10.07,17.45 v 4.031 c 0,6.422 -4.51,14.23 -10.07,17.45 l -594.33,343.13 c -5.57,3.22 -14.59,3.22 -20.16,0 L 2030.93,842.059 c -5.57,-3.219 -10.08,-11.039 -10.08,-17.457"
         style="fill:#dadbd8;fill-opacity:1;fill-rule:nonzero;stroke:none"
         id="path42" />
      <path
         d="m 2020.85,824.602 v -4.024 c 0,-6.418 4.51,-14.238 10.08,-17.449 L 2625.25,460 c 2.78,-1.609 6.44,-2.418 10.09,-2.418 v 78.457 l -567.22,327.481 -37.19,-21.461 c -5.57,-3.219 -10.08,-11.039 -10.08,-17.457"
         style="fill:#e2e2e0;fill-opacity:1;fill-rule:nonzero;stroke:none"
         id="path44" />
      <path
         d="m 2030.93,830.422 594.32,-343.141 c 5.57,-3.211 14.59,-3.211 20.16,0 l 877.93,506.879 c 5.56,3.211 5.56,8.41 0,11.63 l -594.33,343.13 c -5.57,3.22 -14.59,3.22 -20.16,0 L 2030.93,842.059 c -5.57,-3.219 -5.57,-8.43 0,-11.637"
         style="fill:#ffffff;fill-opacity:1;fill-rule:nonzero;stroke:none"
         id="path46" />
      <path
         d="M 2788.18,693.949 2387.96,925.02 c -6.96,4.011 -7.3,10.332 -0.78,14.089 6.53,3.77 17.46,3.571 24.42,-0.449 l 400.21,-231.07 c 6.96,-4.008 7.31,-10.32 0.78,-14.09 -6.52,-3.77 -17.46,-3.559 -24.41,0.449"
         style="fill:#e7e8e5;fill-opacity:1;fill-rule:nonzero;stroke:none"
         id="path48" />
      <path
         d="m 2504.06,666.48 -197.38,113.961 c -6.96,4.02 -7.31,10.329 -0.78,14.098 6.53,3.77 17.46,3.563 24.42,-0.449 l 197.37,-113.969 c 6.96,-4.012 7.32,-10.32 0.78,-14.09 -6.52,-3.769 -17.45,-3.562 -24.41,0.449"
         style="fill:#dadbd8;fill-opacity:1;fill-rule:nonzero;stroke:none"
         id="path50" />
      <path
         d="m 2560.74,696.789 -138.86,80.172 c -4.89,2.82 -5.14,7.258 -0.55,9.91 4.59,2.66 12.29,2.508 17.18,-0.312 l 138.85,-80.168 c 4.89,-2.821 5.15,-7.262 0.55,-9.911 -4.59,-2.66 -12.28,-2.511 -17.17,0.309"
         style="fill:#e7e8e5;fill-opacity:1;fill-rule:nonzero;stroke:none"
         id="path52" />
      <path
         d="m 2859.2,734.809 -400.22,231.07 c -6.95,4.019 -7.3,10.332 -0.78,14.101 6.53,3.77 17.46,3.559 24.42,-0.449 l 400.21,-231.07 c 6.96,-4.02 7.3,-10.332 0.78,-14.102 -6.52,-3.769 -17.45,-3.558 -24.41,0.45"
         style="fill:#e7e8e5;fill-opacity:1;fill-rule:nonzero;stroke:none"
         id="path54" />
      <path
         d="m 2930.22,775.68 -400.21,231.06 c -6.97,4.02 -7.31,10.33 -0.79,14.1 6.53,3.77 17.46,3.56 24.42,-0.45 l 400.21,-231.07 c 6.96,-4.011 7.31,-10.32 0.78,-14.09 -6.53,-3.769 -17.46,-3.558 -24.41,0.45"
         style="fill:#e7e8e5;fill-opacity:1;fill-rule:nonzero;stroke:none"
         id="path56" />
      <path
         d="m 3001.24,816.539 -211.36,122.352 c -6.95,4.031 -7.31,10.328 -0.77,14.101 6.52,3.758 17.45,3.567 24.41,-0.453 L 3024.87,830.18 c 6.96,-4.008 7.3,-10.321 0.78,-14.09 -6.52,-3.77 -17.46,-3.559 -24.41,0.449"
         style="fill:#e7e8e5;fill-opacity:1;fill-rule:nonzero;stroke:none"
         id="path58" />
      <path
         d="m 3201.72,932.691 -400.21,231.069 c -6.95,4.02 -7.3,10.33 -0.77,14.1 6.52,3.77 17.45,3.56 24.41,-0.45 l 400.22,-231.07 c 6.95,-4.02 7.3,-10.328 0.77,-14.102 -6.52,-3.769 -17.45,-3.558 -24.42,0.453"
         style="fill:#e7e8e5;fill-opacity:1;fill-rule:nonzero;stroke:none"
         id="path60" />
      <path
         d="m 3272.75,973.559 -400.21,231.071 c -6.97,4.01 -7.31,10.32 -0.79,14.09 6.53,3.77 17.46,3.56 24.42,-0.45 l 400.21,-231.071 c 6.96,-4.008 7.31,-10.32 0.78,-14.09 -6.53,-3.769 -17.46,-3.558 -24.41,0.45"
         style="fill:#e7e8e5;fill-opacity:1;fill-rule:nonzero;stroke:none"
         id="path62" />
      <path
         d="M 3130.71,891.828 2730.49,1122.9 c -6.95,4.01 -7.3,10.33 -0.78,14.09 6.54,3.77 17.46,3.57 24.42,-0.45 l 400.21,-231.071 c 6.95,-4.008 7.31,-10.321 0.78,-14.09 -6.52,-3.77 -17.46,-3.559 -24.41,0.449"
         style="fill:#e7e8e5;fill-opacity:1;fill-rule:nonzero;stroke:none"
         id="path64" />
      <path
         d="m 3343.77,1014.42 -400.22,231.06 c -6.95,4.02 -7.3,10.34 -0.78,14.1 6.53,3.77 17.46,3.57 24.42,-0.45 l 400.21,-231.07 c 6.96,-4.01 7.3,-10.32 0.78,-14.09 -6.52,-3.77 -17.45,-3.56 -24.41,0.45"
         style="fill:#e7e8e5;fill-opacity:1;fill-rule:nonzero;stroke:none"
         id="path66" />
      <path
         d="m 2659.15,659.191 c -26.11,15.059 -68.43,15.059 -94.53,0 -26.12,-15.082 -26.12,-39.519 0,-54.589 26.1,-15.071 68.42,-15.071 94.53,0 26.1,15.07 26.1,39.507 0,54.589"
         style="fill:#dadbd8;fill-opacity:1;fill-rule:nonzero;stroke:none"
         id="path68" />
      <path
         d="m 2031.19,1940.77 -375.02,-216.52 c -13.91,-8.02 -27.41,-27.37 -30.15,-43.2 l -93.2,-538.09 c -2.74,-15.83 6.32,-35.18 20.23,-43.21 l 241.81,-139.621 c 13.92,-8.02 36.47,-8.02 50.39,0 l 516.82,298.391 c 13.91,8.04 25.19,26.77 25.19,41.84 0,15.08 -11.28,33.81 -25.18,41.83 l -185.96,107.37 c -13.91,8.02 -26.51,27.5 -28.14,43.48 l -41.38,406.05 c -1.62,15.98 -13.53,35.05 -26.58,42.58 -13.05,7.54 -34.91,7.13 -48.83,-0.9"
         style="fill:#17282f;fill-opacity:1;fill-rule:nonzero;stroke:none"
         id="path70" />
      <path
         d="m 1820.04,1054.74 0.01,-100.631 c 9.13,0 18.24,2.012 25.2,6.02 l 516.82,298.391 c 13.91,8.04 25.19,26.77 25.19,41.84 0,8.82 -3.92,18.85 -9.91,27.29 h -84.62 l -472.69,-272.91"
         style="fill:#273e47;fill-opacity:1;fill-rule:nonzero;stroke:none"
         id="path72" />
      <path
         d="m 2078.46,1913.48 -375.02,-216.51 c -13.91,-8.04 -27.41,-27.38 -30.16,-43.21 l -84.6,-488.47 c -2.74,-15.83 6.31,-35.18 20.23,-43.21 l 185.95,-107.37 c 13.92,-8.02 36.47,-8.02 50.39,0 l 516.83,298.39 c 13.9,8.04 13.9,21.07 0,29.09 l -185.96,107.37 c -13.91,8.02 -26.51,27.5 -28.14,43.48 l -41.38,406.05 c -1.62,15.98 -14.23,22.43 -28.14,14.39"
         style="fill:#17282f;fill-opacity:1;fill-rule:nonzero;stroke:none"
         id="path74" />
      <path
         d="m 2362.07,1342.19 -185.95,107.37 c -6.86,3.95 -13.38,10.7 -18.45,18.43 l -565.43,-326.44 c 3.64,-8.15 9.48,-15.32 16.67,-19.47 l 185.95,-107.37 c 13.92,-8.02 36.48,-8.02 50.39,0 l 516.82,298.39 c 13.91,8.04 13.91,21.07 0,29.09"
         style="fill:#33535f;fill-opacity:1;fill-rule:nonzero;stroke:none"
         id="path76" />
      <path
         d="m 839.445,870.57 -24.004,13.86 c -19.476,11.25 -35.269,38.601 -35.269,61.09 l -0.012,1610.52 c 0,22.5 15.813,49.81 35.32,61.01 l 1967.55,1129.61 c 19.51,11.2 51.12,11.17 70.6,-0.08 l 18.31,-10.57 c 19.47,-11.25 35.26,-38.6 35.26,-61.09 V 2064.41 c 0,-22.5 -15.79,-49.85 -35.26,-61.1 L 909.984,870.57 c -19.476,-11.25 -51.058,-11.25 -70.539,0"
         style="fill:#33535f;fill-opacity:1;fill-rule:nonzero;stroke:none"
         id="path78" />
      <path
         d="m 921.965,2514.9 -131.453,75.89 c -6.395,-11.04 -10.352,-23.49 -10.352,-34.75 l 0.012,-1610.52 c 0,-22.489 15.793,-49.84 35.269,-61.09 l 24.008,-13.86 c 19.477,-11.25 51.059,-11.25 70.535,0 l 11.985,6.918 -0.004,1637.412"
         style="fill:#17282f;fill-opacity:1;fill-rule:nonzero;stroke:none"
         id="path80" />
      <path
         d="m 874.719,890.93 v 1610.52 c 0,22.49 15.789,49.84 35.265,61.09 L 2871.94,3695.29 c 19.47,11.24 35.26,2.12 35.26,-20.37 V 2064.41 c 0,-22.5 -15.79,-49.85 -35.26,-61.1 L 909.984,870.57 c -19.476,-11.25 -35.265,-2.129 -35.265,20.36"
         style="fill:#273e47;fill-opacity:1;fill-rule:nonzero;stroke:none"
         id="path82" />
      <path
         d="m 1795.99,1491.24 185.95,107.35 c 13.91,8.04 25.19,2.32 25.19,-12.74 0,-15.07 -11.28,-33.8 -25.19,-41.84 l -185.95,-107.35 c -13.91,-8.04 -25.19,-2.34 -25.19,12.74 0,15.07 11.28,33.8 25.19,41.84"
         style="fill:#17282f;fill-opacity:1;fill-rule:nonzero;stroke:none"
         id="path84" />
      <path
         d="M 965.09,2513.29 2812.84,3583.1 c 11.12,6.44 20.14,1.24 20.14,-11.61 V 2167.84 c 0,-12.85 -9.03,-28.48 -20.15,-34.91 L 965.102,1066.15 c -11.129,-6.43 -20.157,-1.22 -20.157,11.63 v 1400.58 c 0,12.85 9.02,28.49 20.145,34.93"
         style="fill:#ffffff;fill-opacity:1;fill-rule:nonzero;stroke:none"
         id="path86" />
      <path
         d="m 1085.85,2092.81 -18.82,10.88 c -13.91,8.04 -25.19,27.58 -25.19,43.64 v 269.3 c 0,16.07 11.28,35.6 25.19,43.64 l 705.89,407.54 c 13.92,8.03 36.47,8.03 50.39,-0.01 l 18.81,-10.87 c 13.92,-8.04 25.2,-27.58 25.2,-43.64 v -269.3 c 0,-16.07 -11.28,-35.6 -25.2,-43.64 l -705.89,-407.54 c -13.92,-8.04 -36.47,-8.03 -50.38,0"
         style="fill:#26b6a6;fill-opacity:1;fill-rule:nonzero;stroke:none"
         id="path88" />
      <path
         d="m 1111.05,2086.78 v 0 c 0.01,0 0.02,0 0.04,0 -0.02,0 -0.03,0 -0.04,0 m -0.06,0 c -9.1,0.01 -18.2,2.02 -25.14,6.03 6.94,-4.01 16.04,-6.02 25.14,-6.03 m 24.31,5.51 c 0.07,0.04 0.14,0.07 0.2,0.11 -0.06,-0.04 -0.13,-0.07 -0.2,-0.11 m 0.35,0.19 c 0.05,0.03 0.09,0.05 0.14,0.08 v 0 c -0.05,-0.03 -0.09,-0.05 -0.14,-0.08 m 0.23,0.13 v 0 c 0.01,0.01 0.03,0.01 0.04,0.02 v 0 c -0.01,-0.01 -0.03,-0.01 -0.04,-0.02 m 0.18,0.1 v 0 c 0.01,0 0.02,0.01 0.02,0.01 v 0 c -0.01,0 -0.01,-0.01 -0.02,-0.01 m -69.68,11.36 c -13.61,8.26 -24.54,27.45 -24.54,43.26 v 269.3 c 0,16.07 11.28,35.6 25.19,43.64 l 705.89,407.54 c 6.96,4.01 16.08,6.02 25.19,6.02 9.12,0 18.24,-2.01 25.2,-6.03 l 18.81,-10.87 c 13.76,-7.95 24.95,-27.15 25.19,-43.11 -0.17,11.07 -5.8,17.45 -13.94,17.45 -3.39,0 -7.21,-1.1 -11.25,-3.44 l -705.89,-407.55 c -6.96,-4.01 -13.26,-10.9 -17.82,-18.8 l -69.21,39.96 c -4.55,-7.89 -7.36,-16.79 -7.36,-24.81 v 0 0 -269.3 c 0,-15.81 10.93,-35 24.54,-43.26 m 800.93,709.39 c 0,0.01 0,0.03 0,0.04 0,-0.01 0,-0.03 0,-0.04 m 0,0.17 c 0,0.01 0,0.03 0,0.05 0,-0.02 0,-0.04 0,-0.05"
         style="fill:#4ac2b6;fill-opacity:1;fill-rule:nonzero;stroke:none"
         id="path90" />
      <path
         d="m 1158.3,2378.45 -109.1,62.99 c -4.55,-7.89 -7.36,-16.79 -7.36,-24.81 v -269.3 c 0,-16.06 11.28,-35.6 25.19,-43.64 l 18.82,-10.88 c 13.91,-8.03 36.46,-8.04 50.38,0 l 22.07,12.74 v 272.9"
         style="fill:#26b6a6;fill-opacity:1;fill-rule:nonzero;stroke:none"
         id="path92" />
      <path
         d="m 1111.05,2086.78 c -9.12,0 -18.25,2.01 -25.2,6.03 l -18.82,10.88 c -13.91,8.04 -25.19,27.58 -25.19,43.64 v 269.3 c 0,8.02 2.81,16.92 7.36,24.81 l 69.21,-39.96 c -4.56,-7.9 -7.38,-16.8 -7.37,-24.83 v -269.3 c 0,-11.39 5.67,-17.98 13.94,-17.98 3.26,0 6.93,1.02 10.81,3.19 -6.89,-3.85 -15.79,-5.77 -24.7,-5.78 -0.02,0 -0.03,0 -0.04,0 v 0 m 24.83,5.83 c 0.01,0.01 0.03,0.01 0.04,0.02 -0.01,-0.01 -0.03,-0.01 -0.04,-0.02 m 0.18,0.1 c 0.01,0 0.01,0.01 0.02,0.01 0,0 -0.01,-0.01 -0.02,-0.01"
         style="fill:#14b099;fill-opacity:1;fill-rule:nonzero;stroke:none"
         id="path94" />
      <path
         d="m 1111.04,2376.65 v -269.3 c 0,-16.06 11.27,-22.58 25.19,-14.54 l 705.89,407.54 c 13.92,8.04 25.2,27.57 25.2,43.64 v 269.3 c 0,16.06 -11.29,22.58 -25.2,14.54 l -705.89,-407.55 c -13.92,-8.03 -25.2,-27.56 -25.19,-43.63"
         style="fill:#26b6a6;fill-opacity:1;fill-rule:nonzero;stroke:none"
         id="path96" />
      <path
         d="m 1412.54,2525.27 244.18,140.98 c 9.9,5.71 17.91,3.1 17.91,-5.83 0,-8.92 -8.01,-20.79 -17.9,-26.5 l -244.18,-140.98 c -9.89,-5.71 -17.91,-3.1 -17.91,5.83 0,8.93 8.02,20.79 17.9,26.5"
         style="fill:#ffffff;fill-opacity:1;fill-rule:nonzero;stroke:none"
         id="path98" />
      <path
         d="m 1409.76,2441.75 395.17,228.16 c 8.35,4.82 15.11,2.62 15.11,-4.92 0,-7.54 -6.76,-17.55 -15.11,-22.37 l -395.17,-228.16 c -8.35,-4.82 -15.12,-2.61 -15.12,4.92 0,7.54 6.77,17.55 15.12,22.37"
         style="fill:#ffffff;fill-opacity:1;fill-rule:nonzero;stroke:none"
         id="path100" />
      <path
         d="m 1409.76,2387.17 395.17,228.16 c 8.35,4.82 15.11,2.62 15.11,-4.92 0,-7.53 -6.76,-17.55 -15.11,-22.37 l -395.17,-228.16 c -8.35,-4.82 -15.12,-2.61 -15.12,4.92 0,7.54 6.77,17.55 15.12,22.37"
         style="fill:#ffffff;fill-opacity:1;fill-rule:nonzero;stroke:none"
         id="path102" />
      <path
         d="m 1409.76,2332.6 395.17,228.15 c 8.35,4.82 15.11,2.62 15.11,-4.92 0,-7.53 -6.76,-17.55 -15.11,-22.37 l -395.17,-228.15 c -8.35,-4.82 -15.12,-2.62 -15.12,4.92 0,7.53 6.77,17.54 15.12,22.37"
         style="fill:#ffffff;fill-opacity:1;fill-rule:nonzero;stroke:none"
         id="path104" />
      <path
         d="m 1178.46,2390.09 148.76,85.88 c 11.13,6.43 20.15,1.22 20.15,-11.63 v -171.78 c 0,-12.85 -9.02,-28.48 -20.15,-34.91 l -148.76,-85.88 c -11.13,-6.43 -20.16,-1.22 -20.16,11.63 v 171.78 c 0,12.85 9.03,28.48 20.16,34.91"
         style="fill:#26b6a6;fill-opacity:1;fill-rule:nonzero;stroke:none"
         id="path106" />
      <path
         d="m 1169.45,2169.02 c -6.61,0 -11.15,5.26 -11.15,14.38 v 171.78 c 0,12.85 9.03,28.48 20.16,34.91 l 148.76,85.88 c 3.23,1.87 6.29,2.75 9,2.75 6.61,0 11.15,-5.27 11.15,-14.38 v -171.78 c 0,-12.85 -9.02,-28.48 -20.15,-34.91 l -148.76,-85.88 c -3.24,-1.87 -6.3,-2.75 -9.01,-2.75"
         style="fill:#4ac2b6;fill-opacity:1;fill-rule:nonzero;stroke:none"
         id="path108" />
      <path
         d="m 1204.7,2373.4 c -11.24,-6.48 -20.73,-22.92 -20.73,-35.88 0,-5.06 1.47,-8.79 4.01,-10.27 2.57,-1.47 6.54,-0.87 10.9,1.66 11.24,6.48 20.73,22.92 20.73,35.89 0,5.05 -1.47,8.79 -4.01,10.26 -2.56,1.47 -6.54,0.87 -10.9,-1.66 z m -13.48,-58.6 c -3.25,0 -6.31,0.79 -9.06,2.37 -6.34,3.66 -9.83,10.89 -9.83,20.35 0,17.18 11.66,37.37 26.55,45.97 8.19,4.72 16.18,5.31 22.54,1.65 6.33,-3.66 9.83,-10.89 9.83,-20.34 0,-17.19 -11.66,-37.38 -26.55,-45.97 -4.65,-2.68 -9.23,-4.03 -13.48,-4.03"
         style="fill:#ffffff;fill-opacity:1;fill-rule:nonzero;stroke:none"
         id="path110" />
      <path
         d="m 1347.37,2353.11 -28.34,30.13 c -2.84,3.02 -6.99,4.41 -11.06,3.73 -4.08,-0.68 -7.53,-3.34 -9.22,-7.1 l -40.85,-90.09 -19.79,17.93 c -2.71,2.45 -6.36,3.57 -9.94,3.09 -3.61,-0.48 -6.81,-2.51 -8.79,-5.57 l -61.08,-94.94 v -21.61 l 71.99,110.4 65.66,-59.47 10.59,6.11 -39.59,35.86 42.39,93.48 1.21,0.2 36.82,-39.14 v 16.99"
         style="fill:#ffffff;fill-opacity:1;fill-rule:nonzero;stroke:none"
         id="path112" />
      <path
         d="m 1085.85,1642.82 -18.82,10.87 c -13.91,8.03 -25.19,27.58 -25.19,43.64 v 269.3 c 0,16.07 11.28,35.6 25.19,43.63 l 705.89,407.55 c 13.92,8.03 36.47,8.03 50.39,-0.01 l 18.81,-10.87 c 13.92,-8.04 25.2,-27.58 25.2,-43.64 v -269.3 c 0,-16.07 -11.28,-35.61 -25.2,-43.64 l -705.89,-407.54 c -13.92,-8.04 -36.47,-8.04 -50.38,0.01"
         style="fill:#26b6a6;fill-opacity:1;fill-rule:nonzero;stroke:none"
         id="path114" />
      <path
         d="m 1110.99,1636.78 c -9,0.01 -18,1.98 -24.92,5.91 6.91,-3.93 15.92,-5.9 24.92,-5.91"
         style="fill:#4ac2b6;fill-opacity:1;fill-rule:nonzero;stroke:none"
         id="path116" />
      <path
         d="m 1135.88,1642.61 v 0 c 0.01,0.01 0.03,0.02 0.04,0.02 v 0 c -0.01,0 -0.03,-0.01 -0.04,-0.02 m 0.18,0.1 v 0 c 0.01,0 0.02,0.01 0.02,0.01 v 0 c -0.01,0 -0.01,0 -0.02,-0.01"
         style="fill:#4ac2b6;fill-opacity:1;fill-rule:nonzero;stroke:none"
         id="path118" />
      <path
         d="m 1066.38,1654.07 c -13.61,8.26 -24.54,27.45 -24.54,43.26 v 269.3 c 0,16.07 11.28,35.6 25.19,43.63 l 705.89,407.55 c 6.96,4.01 16.07,6.02 25.19,6.02 9.12,0 18.24,-2.01 25.2,-6.03 l 18.81,-10.87 c 13.76,-7.95 24.95,-27.15 25.19,-43.11 -0.17,11.07 -5.8,17.45 -13.94,17.45 -3.39,0 -7.21,-1.1 -11.25,-3.44 l -705.89,-407.55 c -6.96,-4.01 -13.26,-10.9 -17.82,-18.8 l -69.21,39.96 c -4.55,-7.89 -7.36,-16.78 -7.36,-24.81 v 0 0 -269.3 c 0,-15.81 10.93,-35 24.54,-43.26 m 800.93,709.39 c 0,0.01 0,0.03 0,0.04 0,-0.01 0,-0.03 0,-0.04 m 0,0.16 c 0,0.02 0,0.04 0,0.06 0,-0.02 0,-0.04 0,-0.06"
         style="fill:#4ac2b6;fill-opacity:1;fill-rule:nonzero;stroke:none"
         id="path120" />
      <path
         d="m 1158.3,1928.45 -109.1,62.99 c -4.55,-7.89 -7.36,-16.78 -7.36,-24.81 v -269.3 c 0,-16.06 11.28,-35.61 25.19,-43.64 l 18.82,-10.87 c 13.91,-8.05 36.46,-8.05 50.38,-0.01 l 22.07,12.74 v 272.9"
         style="fill:#26b6a6;fill-opacity:1;fill-rule:nonzero;stroke:none"
         id="path122" />
      <path
         d="m 1111.04,1636.78 c -9.12,0 -18.24,2.01 -25.19,6.04 l -18.82,10.87 c -13.91,8.03 -25.19,27.58 -25.19,43.64 v 269.3 c 0,8.03 2.81,16.92 7.36,24.81 l 69.21,-39.96 c -4.56,-7.9 -7.38,-16.8 -7.37,-24.83 v -269.3 c 0,-11.39 5.67,-17.98 13.94,-17.98 3.26,0 6.93,1.02 10.81,3.19 -6.89,-3.85 -15.79,-5.77 -24.7,-5.78 -0.02,0 -0.03,0 -0.05,0 v 0"
         style="fill:#14b099;fill-opacity:1;fill-rule:nonzero;stroke:none"
         id="path124" />
      <path
         d="m 1135.88,1642.61 c 0.01,0.01 0.03,0.02 0.04,0.02 -0.01,0 -0.03,-0.01 -0.04,-0.02"
         style="fill:#14b099;fill-opacity:1;fill-rule:nonzero;stroke:none"
         id="path126" />
      <path
         d="m 1136.06,1642.71 c 0.01,0.01 0.01,0.01 0.02,0.01 0,0 -0.01,-0.01 -0.02,-0.01"
         style="fill:#14b099;fill-opacity:1;fill-rule:nonzero;stroke:none"
         id="path128" />
      <path
         d="m 1111.04,1926.65 v -269.3 c 0,-16.06 11.27,-22.58 25.19,-14.54 l 705.89,407.54 c 13.92,8.03 25.2,27.57 25.2,43.64 v 269.3 c 0,16.06 -11.29,22.58 -25.2,14.54 l -705.89,-407.55 c -13.92,-8.03 -25.2,-27.56 -25.19,-43.63"
         style="fill:#26b6a6;fill-opacity:1;fill-rule:nonzero;stroke:none"
         id="path130" />
      <path
         d="m 1412.54,2075.27 244.18,140.98 c 9.9,5.71 17.91,3.1 17.91,-5.83 0,-8.92 -8.01,-20.79 -17.9,-26.5 l -244.18,-140.98 c -9.89,-5.71 -17.91,-3.1 -17.91,5.83 0,8.93 8.02,20.79 17.9,26.5"
         style="fill:#ffffff;fill-opacity:1;fill-rule:nonzero;stroke:none"
         id="path132" />
      <path
         d="m 1409.76,1991.75 395.17,228.16 c 8.35,4.82 15.11,2.62 15.11,-4.92 0,-7.54 -6.76,-17.55 -15.11,-22.37 l -395.17,-228.16 c -8.35,-4.82 -15.12,-2.61 -15.12,4.92 0,7.54 6.77,17.55 15.12,22.37"
         style="fill:#ffffff;fill-opacity:1;fill-rule:nonzero;stroke:none"
         id="path134" />
      <path
         d="m 1409.76,1937.17 395.17,228.16 c 8.35,4.82 15.11,2.62 15.11,-4.92 0,-7.53 -6.76,-17.55 -15.11,-22.37 l -395.17,-228.15 c -8.35,-4.83 -15.12,-2.62 -15.12,4.91 0,7.54 6.77,17.55 15.12,22.37"
         style="fill:#ffffff;fill-opacity:1;fill-rule:nonzero;stroke:none"
         id="path136" />
      <path
         d="m 1409.76,1882.59 395.17,228.16 c 8.35,4.82 15.11,2.62 15.11,-4.92 0,-7.53 -6.76,-17.55 -15.11,-22.37 l -395.17,-228.15 c -8.35,-4.83 -15.12,-2.62 -15.12,4.91 0,7.54 6.77,17.56 15.12,22.37"
         style="fill:#ffffff;fill-opacity:1;fill-rule:nonzero;stroke:none"
         id="path138" />
      <path
         d="m 1178.46,1940.09 148.76,85.88 c 11.13,6.43 20.15,1.22 20.15,-11.63 v -171.78 c 0,-12.85 -9.02,-28.48 -20.15,-34.91 l -148.76,-85.89 c -11.13,-6.42 -20.16,-1.21 -20.16,11.65 v 171.77 c 0,12.85 9.03,28.48 20.16,34.91"
         style="fill:#26b6a6;fill-opacity:1;fill-rule:nonzero;stroke:none"
         id="path140" />
      <path
         d="m 1169.46,1719.01 c -6.62,0 -11.16,5.28 -11.16,14.4 v 171.77 c 0,12.85 9.03,28.48 20.16,34.91 l 148.76,85.88 c 3.23,1.87 6.29,2.76 9,2.76 6.61,0 11.15,-5.28 11.15,-14.39 v -171.78 c 0,-12.85 -9.02,-28.48 -20.15,-34.91 l -148.76,-85.89 c -3.24,-1.86 -6.29,-2.75 -9,-2.75"
         style="fill:#4ac2b6;fill-opacity:1;fill-rule:nonzero;stroke:none"
         id="path142" />
      <path
         d="m 1204.7,1923.4 c -11.24,-6.48 -20.73,-22.92 -20.73,-35.88 0,-5.05 1.47,-8.79 4.01,-10.27 2.57,-1.47 6.54,-0.87 10.9,1.65 11.24,6.49 20.73,22.93 20.73,35.9 0,5.05 -1.47,8.79 -4.01,10.26 -2.56,1.47 -6.54,0.87 -10.9,-1.66 z m -13.48,-58.6 c -3.25,0 -6.31,0.79 -9.06,2.37 -6.34,3.67 -9.83,10.89 -9.83,20.35 0,17.17 11.66,37.37 26.55,45.96 8.19,4.73 16.18,5.32 22.54,1.66 6.33,-3.66 9.83,-10.89 9.83,-20.34 0,-17.19 -11.66,-37.38 -26.55,-45.98 -4.65,-2.67 -9.23,-4.02 -13.48,-4.02"
         style="fill:#ffffff;fill-opacity:1;fill-rule:nonzero;stroke:none"
         id="path144" />
      <path
         d="m 1347.37,1903.11 -28.34,30.13 c -2.84,3.02 -6.99,4.41 -11.06,3.73 -4.08,-0.68 -7.53,-3.34 -9.22,-7.1 l -40.85,-90.09 -19.79,17.93 c -2.71,2.44 -6.36,3.58 -9.94,3.09 -3.61,-0.48 -6.81,-2.51 -8.79,-5.58 l -61.08,-94.92 v -21.62 l 71.99,110.4 65.66,-59.47 10.59,6.11 -39.59,35.86 42.39,93.48 1.21,0.2 36.82,-39.14 v 16.99"
         style="fill:#ffffff;fill-opacity:1;fill-rule:nonzero;stroke:none"
         id="path146" />
      <path
         d="m 1085.85,1202.82 -18.82,10.87 c -13.91,8.04 -25.19,27.58 -25.19,43.64 v 269.3 c 0,16.06 11.28,35.6 25.19,43.63 l 705.89,407.55 c 13.92,8.03 36.47,8.03 50.39,-0.01 l 18.81,-10.87 c 13.92,-8.04 25.2,-27.58 25.2,-43.64 v -269.3 c 0,-16.06 -11.28,-35.6 -25.2,-43.64 l -705.89,-407.54 c -13.92,-8.04 -36.47,-8.04 -50.38,0.01"
         style="fill:#26b6a6;fill-opacity:1;fill-rule:nonzero;stroke:none"
         id="path148" />
      <path
         d="m 1110.99,1196.78 c -9,0.01 -18,1.98 -24.92,5.91 6.91,-3.93 15.92,-5.9 24.92,-5.91"
         style="fill:#4ac2b6;fill-opacity:1;fill-rule:nonzero;stroke:none"
         id="path150" />
      <path
         d="m 1135.72,1202.52 c 0.02,0.01 0.04,0.02 0.07,0.04 v 0 c -0.03,-0.02 -0.05,-0.03 -0.07,-0.04 m 0.16,0.09 v 0 c 0.01,0.01 0.03,0.01 0.04,0.02 v 0 c -0.01,-0.01 -0.03,-0.01 -0.04,-0.02 m 0.18,0.1 v 0 c 0.01,0 0.02,0.01 0.02,0.01 v 0 c -0.01,0 -0.01,-0.01 -0.02,-0.01"
         style="fill:#4ac2b6;fill-opacity:1;fill-rule:nonzero;stroke:none"
         id="path152" />
      <path
         d="m 1118.41,1511.48 -69.21,39.96 c 4.57,7.9 10.87,14.8 17.83,18.82 l 705.89,407.55 c 6.96,4.01 16.08,6.02 25.19,6.02 9.12,0 18.24,-2.01 25.2,-6.03 l 18.81,-10.87 c 13.76,-7.95 24.95,-27.15 25.19,-43.11 -0.17,11.07 -5.8,17.45 -13.94,17.45 -3.39,0 -7.21,-1.1 -11.25,-3.44 l -705.89,-407.54 c -6.96,-4.02 -13.26,-10.91 -17.82,-18.81 m 748.9,411.98 c 0,0.01 0,0.03 0,0.04 0,-0.01 0,-0.03 0,-0.04 m 0,0.16 c 0,0.02 0,0.04 0,0.06 0,-0.02 0,-0.04 0,-0.06"
         style="fill:#4ac2b6;fill-opacity:1;fill-rule:nonzero;stroke:none"
         id="path154" />
      <path
         d="m 1066.38,1214.07 c -13.61,8.26 -24.54,27.45 -24.54,43.26 v 269.3 c 0,4.81 1.01,9.94 2.81,14.98 -1.8,-5.04 -2.81,-10.17 -2.81,-14.98 v 0 0 -269.3 c 0,-15.81 10.93,-35 24.54,-43.26 m -21.72,327.58 c 0.01,0.03 0.02,0.07 0.04,0.1 -0.02,-0.03 -0.03,-0.07 -0.04,-0.1 m 0.07,0.2 c 0.01,0.02 0.01,0.03 0.02,0.04 -0.01,-0.01 -0.01,-0.02 -0.02,-0.04"
         style="fill:#4ac2b6;fill-opacity:1;fill-rule:nonzero;stroke:none"
         id="path156" />
      <path
         d="m 1158.3,1488.45 -109.1,62.99 c -4.55,-7.89 -7.36,-16.79 -7.36,-24.81 v -269.3 c 0,-16.06 11.28,-35.6 25.19,-43.64 l 18.82,-10.87 c 13.91,-8.05 36.46,-8.05 50.38,-0.01 l 22.07,12.74 v 272.9"
         style="fill:#26b6a6;fill-opacity:1;fill-rule:nonzero;stroke:none"
         id="path158" />
      <path
         d="m 1111.05,1196.78 c -9.12,0 -18.25,2.01 -25.2,6.04 l -18.82,10.87 c -13.91,8.04 -25.19,27.58 -25.19,43.64 v 269.3 c 0,8.02 2.81,16.92 7.36,24.81 l 69.21,-39.96 c -4.56,-7.89 -7.38,-16.8 -7.37,-24.83 v -269.3 c 0,-11.39 5.67,-17.98 13.94,-17.98 3.26,0 6.93,1.02 10.81,3.19 -6.89,-3.85 -15.79,-5.77 -24.7,-5.78 -0.02,0 -0.03,0 -0.04,0 v 0"
         style="fill:#14b099;fill-opacity:1;fill-rule:nonzero;stroke:none"
         id="path160" />
      <path
         d="m 1135.88,1202.61 c 0.01,0.01 0.03,0.01 0.04,0.02 -0.01,-0.01 -0.03,-0.01 -0.04,-0.02"
         style="fill:#14b099;fill-opacity:1;fill-rule:nonzero;stroke:none"
         id="path162" />
      <path
         d="m 1136.06,1202.71 c 0.01,0 0.01,0.01 0.02,0.01 0,0 -0.01,-0.01 -0.02,-0.01"
         style="fill:#14b099;fill-opacity:1;fill-rule:nonzero;stroke:none"
         id="path164" />
      <path
         d="m 1111.04,1486.65 v -269.3 c 0,-16.06 11.27,-22.58 25.19,-14.54 l 705.89,407.54 c 13.92,8.04 25.2,27.58 25.2,43.64 v 269.3 c 0,16.06 -11.29,22.58 -25.2,14.54 l -705.89,-407.54 c -13.92,-8.04 -25.2,-27.57 -25.19,-43.64"
         style="fill:#26b6a6;fill-opacity:1;fill-rule:nonzero;stroke:none"
         id="path166" />
      <path
         d="m 1412.54,1635.27 244.18,140.98 c 9.9,5.71 17.91,3.1 17.91,-5.82 0,-8.93 -8.01,-20.8 -17.9,-26.51 l -244.18,-140.97 c -9.89,-5.72 -17.91,-3.11 -17.91,5.82 0,8.92 8.02,20.8 17.9,26.5"
         style="fill:#ffffff;fill-opacity:1;fill-rule:nonzero;stroke:none"
         id="path168" />
      <path
         d="m 1409.76,1551.75 395.17,228.16 c 8.35,4.81 15.11,2.62 15.11,-4.92 0,-7.53 -6.76,-17.55 -15.11,-22.38 l -395.17,-228.15 c -8.35,-4.82 -15.12,-2.62 -15.12,4.92 0,7.54 6.77,17.55 15.12,22.37"
         style="fill:#ffffff;fill-opacity:1;fill-rule:nonzero;stroke:none"
         id="path170" />
      <path
         d="m 1409.76,1497.17 395.17,228.16 c 8.35,4.82 15.11,2.62 15.11,-4.91 0,-7.54 -6.76,-17.56 -15.11,-22.38 l -395.17,-228.15 c -8.35,-4.83 -15.12,-2.62 -15.12,4.91 0,7.54 6.77,17.55 15.12,22.37"
         style="fill:#ffffff;fill-opacity:1;fill-rule:nonzero;stroke:none"
         id="path172" />
      <path
         d="m 1409.76,1442.59 395.17,228.16 c 8.35,4.82 15.11,2.62 15.11,-4.91 0,-7.54 -6.76,-17.56 -15.11,-22.38 l -395.17,-228.15 c -8.35,-4.83 -15.12,-2.62 -15.12,4.91 0,7.54 6.77,17.56 15.12,22.37"
         style="fill:#ffffff;fill-opacity:1;fill-rule:nonzero;stroke:none"
         id="path174" />
      <path
         d="m 1178.46,1500.08 148.76,85.89 c 11.13,6.43 20.15,1.22 20.15,-11.64 v -171.76 c 0,-12.86 -9.02,-28.49 -20.15,-34.92 l -148.76,-85.89 c -11.13,-6.42 -20.16,-1.21 -20.16,11.64 v 171.78 c 0,12.85 9.03,28.48 20.16,34.9"
         style="fill:#26b6a6;fill-opacity:1;fill-rule:nonzero;stroke:none"
         id="path176" />
      <path
         d="m 1169.46,1279.01 c -6.62,0 -11.16,5.28 -11.16,14.39 v 171.78 c 0,12.85 9.03,28.48 20.16,34.9 l 148.76,85.89 c 3.23,1.87 6.29,2.76 9,2.76 6.61,0 11.15,-5.27 11.15,-14.4 v -171.76 c 0,-12.86 -9.02,-28.49 -20.15,-34.92 l -148.76,-85.89 c -3.24,-1.86 -6.29,-2.75 -9,-2.75"
         style="fill:#4ac2b6;fill-opacity:1;fill-rule:nonzero;stroke:none"
         id="path178" />
      <path
         d="m 1204.7,1483.4 c -11.24,-6.48 -20.73,-22.92 -20.73,-35.88 0,-5.05 1.47,-8.79 4.01,-10.27 2.57,-1.47 6.54,-0.87 10.9,1.65 11.24,6.49 20.73,22.93 20.73,35.9 0,5.05 -1.47,8.79 -4.01,10.26 -2.56,1.47 -6.54,0.87 -10.9,-1.66 z m -13.48,-58.6 c -3.25,0 -6.31,0.79 -9.06,2.37 -6.34,3.67 -9.83,10.89 -9.83,20.35 0,17.17 11.66,37.37 26.55,45.96 8.19,4.73 16.18,5.32 22.54,1.66 6.33,-3.66 9.83,-10.89 9.83,-20.34 0,-17.19 -11.66,-37.38 -26.55,-45.98 -4.65,-2.67 -9.23,-4.02 -13.48,-4.02"
         style="fill:#ffffff;fill-opacity:1;fill-rule:nonzero;stroke:none"
         id="path180" />
      <path
         d="m 1347.37,1463.11 -28.34,30.13 c -2.84,3.02 -6.99,4.41 -11.06,3.73 -4.08,-0.68 -7.53,-3.33 -9.22,-7.1 l -40.85,-90.09 -19.79,17.93 c -2.71,2.44 -6.36,3.58 -9.94,3.09 -3.61,-0.48 -6.81,-2.51 -8.79,-5.58 l -61.08,-94.92 v -21.62 l 71.99,110.4 65.66,-59.47 10.59,6.11 -39.59,35.86 42.39,93.48 1.21,0.2 36.82,-39.14 v 16.99"
         style="fill:#ffffff;fill-opacity:1;fill-rule:nonzero;stroke:none"
         id="path182" />
      <path
         d="m 1983.93,1738.12 -18.82,10.87 c -13.91,8.04 -25.19,27.58 -25.19,43.64 v 1142.48 c 0,16.07 11.28,35.6 25.19,43.64 l 1083.96,625.93 c 13.91,8.03 36.47,8.03 50.38,-0.01 l 18.82,-10.87 c 13.91,-8.04 25.19,-27.58 25.19,-43.65 V 2407.68 c 0,-16.07 -11.28,-35.61 -25.19,-43.64 L 2034.31,1738.11 c -13.91,-8.04 -36.47,-8.03 -50.38,0.01"
         style="fill:#26b6a6;fill-opacity:1;fill-rule:nonzero;stroke:none"
         id="path184" />
      <path
         d="m 2056.38,2896.93 -109.09,62.99 c -4.55,-7.89 -7.37,-16.78 -7.37,-24.81 V 1792.63 c 0,-16.06 11.28,-35.6 25.19,-43.64 l 18.82,-10.87 c 13.91,-8.04 36.47,-8.05 50.38,-0.01 l 22.07,12.75 v 1146.07"
         style="fill:#e2e2e0;fill-opacity:1;fill-rule:nonzero;stroke:none"
         id="path186" />
      <path
         d="m 2056.38,2896.93 -109.09,62.99 c -4.55,-7.89 -7.37,-16.78 -7.37,-24.81 v -52.77 l 69.2,-39.94 47.26,54.53"
         style="fill:#26b6a6;fill-opacity:1;fill-rule:nonzero;stroke:none"
         id="path188" />
      <path
         d="m 2009.11,2842.41 -69.19,39.93 v 52.77 c 0,8.03 2.82,16.92 7.37,24.81 l 69.2,-39.96 c -4.56,-7.89 -7.38,-16.79 -7.38,-24.83 v -52.72"
         style="fill:#14b099;fill-opacity:1;fill-rule:nonzero;stroke:none"
         id="path190" />
      <path
         d="m 2009.11,2895.13 0.01,-1142.48 c 0,-16.06 11.28,-22.58 25.19,-14.54 l 1083.96,625.93 c 13.91,8.03 25.19,27.57 25.19,43.64 v 1142.47 c 0,16.07 -11.28,22.58 -25.19,14.55 L 2034.31,2938.77 c -13.92,-8.03 -25.2,-27.57 -25.2,-43.64"
         style="fill:#f3f2f1;fill-opacity:1;fill-rule:nonzero;stroke:none"
         id="path192" />
      <path
         d="m 2127.28,2852.02 c 39.16,22.61 70.9,4.28 70.9,-40.93 0,-45.22 -31.74,-100.2 -70.9,-122.81 -39.15,-22.6 -70.9,-4.28 -70.9,40.94 0,45.21 31.75,100.19 70.9,122.8"
         style="fill:#26b6a6;fill-opacity:1;fill-rule:nonzero;stroke:none"
         id="path194" />
      <path
         d="m 2270.65,2909.1 233.21,134.65 c 13.92,8.03 25.2,2.33 25.2,-12.75 0,-15.07 -11.28,-33.8 -25.2,-41.83 l -233.21,-134.65 c -13.92,-8.04 -25.19,-2.33 -25.19,12.74 0,15.08 11.27,33.81 25.19,41.84"
         style="fill:#26b6a6;fill-opacity:1;fill-rule:nonzero;stroke:none"
         id="path196" />
      <path
         d="m 2258.05,2812.21 163.88,94.61 c 6.95,4.02 12.6,1.16 12.6,-6.37 0,-7.54 -5.65,-16.9 -12.6,-20.91 l -163.88,-94.62 c -6.96,-4.02 -12.59,-1.17 -12.59,6.37 0,7.53 5.63,16.9 12.59,20.92"
         style="fill:#26b6a6;fill-opacity:1;fill-rule:nonzero;stroke:none"
         id="path198" />
      <path
         d="m 2081.57,2607.32 989.5,571.28 c 13.92,8.03 25.2,1.53 25.2,-14.55 v -705.93 c 0,-16.07 -11.28,-35.6 -25.2,-43.64 l -989.98,-571.56 c -13.91,-8.04 -24.72,-1.53 -24.71,14.54 l -0.02,706.22 c 0.01,16.07 11.3,35.6 25.21,43.64"
         style="fill:#26b6a6;fill-opacity:1;fill-rule:nonzero;stroke:none"
         id="path200" />
      <path
         d="m 2833.82,2869 c -2.42,0 -5.29,-0.9 -8.34,-2.66 l -492.95,-284.61 c -12.08,-6.96 -22.28,-24.64 -22.28,-38.59 v -378.46 c 0,-5.52 1.62,-9.63 4.46,-11.27 2.83,-1.63 7.21,-0.99 12,1.77 l 492.95,284.6 c 12.08,6.97 22.29,24.65 22.29,38.6 v 378.45 c 0,5.53 -1.62,9.63 -4.47,11.28 -1.04,0.59 -2.27,0.89 -3.66,0.89 z m -515.46,-728.14 c -3.41,0 -6.61,0.82 -9.47,2.47 -6.64,3.84 -10.28,11.42 -10.28,21.35 v 378.46 c 0,18.2 12.34,39.58 28.1,48.68 l 492.95,284.6 c 8.61,4.97 17.01,5.61 23.64,1.76 6.63,-3.83 10.29,-11.41 10.29,-21.35 v -378.45 c 0,-18.2 -12.34,-39.58 -28.11,-48.68 l -492.95,-284.6 c -4.89,-2.82 -9.7,-4.24 -14.17,-4.24"
         style="fill:#ffffff;fill-opacity:1;fill-rule:nonzero;stroke:none"
         id="path202" />
      <path
         d="m 2410.19,2575.1 c -24.45,-14.12 -44.35,-48.59 -44.35,-76.83 0,-12.41 3.88,-21.49 10.93,-25.56 7.06,-4.07 16.85,-2.9 27.6,3.31 24.46,14.12 44.37,48.59 44.37,76.83 0,12.41 -3.89,21.49 -10.94,25.56 -7.06,4.07 -16.88,2.9 -27.61,-3.31 z m -24.03,-116.42 c -5.51,0 -10.63,1.31 -15.21,3.95 -10.8,6.24 -16.75,18.89 -16.75,35.64 0,32.5 22.04,70.67 50.17,86.91 14.5,8.38 28.43,9.54 39.25,3.31 10.8,-6.24 16.75,-18.89 16.75,-35.64 0,-32.49 -22.04,-70.67 -50.18,-86.91 -8.37,-4.82 -16.53,-7.26 -24.03,-7.26"
         style="fill:#ffffff;fill-opacity:1;fill-rule:nonzero;stroke:none"
         id="path204" />
      <path
         d="m 2309.28,2201.31 -9.7,6.44 171.34,258.63 c 5.11,7.67 15.48,9.78 23.17,4.71 l 179.99,-119.09 -6.44,-9.7 -179.99,119.08 c -2.31,1.55 -5.49,0.9 -7.02,-1.43 l -171.35,-258.64"
         style="fill:#ffffff;fill-opacity:1;fill-rule:nonzero;stroke:none"
         id="path206" />
      <path
         d="m 2577.03,2409.89 -10.28,5.48 134.24,251.69 c 2.63,4.91 7.5,8.19 13.04,8.76 5.46,0.56 10.98,-1.64 14.55,-5.92 l 123.65,-148.25 -8.92,-7.45 -123.67,148.25 c -1.1,1.32 -2.76,2 -4.42,1.79 -1.7,-0.17 -3.14,-1.14 -3.95,-2.66 l -134.24,-251.69"
         style="fill:#ffffff;fill-opacity:1;fill-rule:nonzero;stroke:none"
         id="path208" />
      <path
         d="m 3143.46,3550.15 c 0,16.07 -11.28,22.58 -25.19,14.55 L 2034.31,2938.77 c -13.92,-8.03 -25.19,-27.57 -25.19,-43.64 v -52.73 l 1134.34,654.92 v 52.83"
         style="fill:#26b6a6;fill-opacity:1;fill-rule:nonzero;stroke:none"
         id="path210" />
      <path
         d="m 2009.12,2842.4 v 52.73 c 0,16.07 11.27,35.61 25.19,43.64 l 1083.96,625.93 c 4.04,2.34 7.86,3.44 11.25,3.44 8.27,0 13.94,-6.59 13.94,-17.99 v -52.83 L 2009.12,2842.4"
         style="fill:#1db3a0;fill-opacity:1;fill-rule:nonzero;stroke:none"
         id="path212" />
      <path
         d="m 3479.29,2319.59 c -29.27,-34.98 -82.66,-101.76 -110.09,-136.2 -14.41,-18.07 -22.58,-40.49 -22.25,-63.6 0.24,-17.15 4.9,-31.46 21.67,-24.15 12.11,5.27 19.81,11.55 37.49,28.98 15.9,15.68 72.22,83.37 72.22,83.37 0,0 43.16,113.61 66.92,120.82 23.77,7.22 40.22,5.37 40.22,5.37 -28.67,9.78 -69.04,29.79 -106.18,-14.59"
         style="fill:#f47089;fill-opacity:1;fill-rule:nonzero;stroke:none"
         id="path214" />
      <path
         d="m 3599.65,2356.94 c -29.31,22.06 -79,16.31 -106.46,-16.91 -20.12,-24.34 -68.02,-83.73 -68.02,-83.73 0,0 13.72,-38.15 61.69,-55.26 l 112.79,155.9"
         style="fill:#26b6a6;fill-opacity:1;fill-rule:nonzero;stroke:none"
         id="path216" />
      <path
         d="m 3486.86,2201.04 c -3.76,1.34 -7.32,2.82 -10.67,4.39 -33.54,15.73 -46.96,41.57 -50.2,48.88 -0.56,1.27 -0.82,1.99 -0.82,1.99 0,0 47.9,59.39 68.02,83.73 16.54,20.01 41.15,30.05 64.51,30.05 15.42,0 30.3,-4.37 41.95,-13.14 l -16.01,-22.13 -0.35,-0.49 -96.43,-133.28"
         style="fill:#1db3a0;fill-opacity:1;fill-rule:nonzero;stroke:none"
         id="path218" />
      <path
         d="m 3148.41,1451.89 -174.95,-199.71 c -5.09,-5.8 -14.64,-1.84 -14.14,5.86 l 17.46,266.47 171.63,-72.62"
         style="fill:#33535f;fill-opacity:1;fill-rule:nonzero;stroke:none"
         id="path220" />
      <path
         d="m 2959.32,1258.04 c -0.5,-7.7 9.05,-11.66 14.14,-5.86 l 34.16,39 c -16.68,-1.73 -32.91,6.01 -42.07,20.05 l -2.49,3.81 -3.74,-57"
         style="fill:#17282f;fill-opacity:1;fill-rule:nonzero;stroke:none"
         id="path222" />
      <path
         d="m 3404.81,2559.47 -9.37,-22.71 -11.44,-27.36 -407.23,-984.87 c 9.67,-28.3 32.34,-49.95 58.59,-63.94 39.91,-21.43 88.26,-25.31 112.95,-8.64 l 404.21,977.6 21.65,52.38 c -15.9,-33.13 -184.86,44.09 -169.36,77.54"
         style="fill:#273e47;fill-opacity:1;fill-rule:nonzero;stroke:none"
         id="path224" />
      <path
         d="m 3368.79,2473.13 -20.88,-50.75 c -6.55,-14.51 20.9,-36.87 55.74,-55.05 46.19,-24.26 105.3,-41.14 114,-21.93 l 15.31,37.45 5.52,13.41 c -8.71,-19.22 -67.91,-2.39 -114.11,21.88 -33.35,17.46 -60,38.91 -56.1,53.35 l 0.06,0.15 0.46,1.49"
         style="fill:#33535f;fill-opacity:1;fill-rule:nonzero;stroke:none"
         id="path226" />
      <path
         d="m 3363.69,2460.42 c -15.27,-33.67 154.45,-110.58 169.71,-76.91 l 21.07,50.73 c -15.26,-33.67 -184.95,43.24 -169.7,76.91 l -21.08,-50.73"
         style="fill:#273e47;fill-opacity:1;fill-rule:nonzero;stroke:none"
         id="path228" />
      <path
         d="M 3404.81,2559.47 3384,2509.4 c -15.22,-32.95 147.87,-108.8 168.52,-79.85 l 1.09,1.78 20.56,50.6 c -15.9,-33.13 -184.86,44.09 -169.36,77.54"
         style="fill:#33535f;fill-opacity:1;fill-rule:nonzero;stroke:none"
         id="path230" />
      <path
         d="m 3492.96,2772.02 -88.15,-212.55 c -6.64,-14.3 20.4,-36.59 54.86,-54.81 46.15,-24.42 105.44,-41.72 114.5,-22.73 l 0.16,0.21 84.75,204.46 c 23.69,46.06 -58.01,104.01 -116.74,107.41 -21.97,1.43 -40.54,-4.74 -49.38,-21.99"
         style="fill:#17282f;fill-opacity:1;fill-rule:nonzero;stroke:none"
         id="path232" />
      <path
         d="m 3629.38,2530.44 c 0,-39.32 -31.87,-71.19 -71.18,-71.19 -39.32,0 -71.19,31.87 -71.19,71.19 0,39.31 31.87,71.19 71.19,71.19 39.31,0 71.18,-31.88 71.18,-71.19"
         style="fill:#17282f;fill-opacity:1;fill-rule:nonzero;stroke:none"
         id="path234" />
      <path
         d="m 3728.67,1240.05 h -50.15 v 85.85 h 50.15 v -85.85"
         style="fill:#f6879f;fill-opacity:1;fill-rule:nonzero;stroke:none"
         id="path236" />
      <path
         d="m 3554.81,1330.48 -50.12,-1.72 -2.51,90.85 50.12,1.71 2.51,-90.84"
         style="fill:#f6879f;fill-opacity:1;fill-rule:nonzero;stroke:none"
         id="path238" />
      <path
         d="m 3725.38,2006.36 c 0,-47.89 6.19,-338.05 6.19,-338.05 1.16,-13.78 14.08,-39.19 11.29,-92.11 -3.8,-71.89 -10.01,-258.77 -10.01,-258.77 0,0 -23.52,-23.3 -56.71,0 0,0 -45.4,258.52 -54.4,329.76 -7.84,62.17 -21.14,231.08 -21.14,231.08 l -46.46,-198.82 c 0,0 8.18,-46.73 9.98,-79.72 1.79,-32.99 -8.52,-205.64 -8.52,-205.64 0,0 -25.49,-17.62 -54.56,-2.08 0,0 -40.28,260.5 -45.46,290.29 -5.16,29.8 35.27,324.06 35.27,324.06 h 234.53"
         style="fill:#273e47;fill-opacity:1;fill-rule:nonzero;stroke:none"
         id="path240" />
      <path
         d="m 3677.2,2352.75 c 21.85,-3.88 39.27,-20.44 44.06,-42.1 2.37,-10.77 4.12,-23.59 4.12,-38.08 v -98.25 -167.96 c -35.17,-38.26 -157.76,-56.08 -234.53,0 0,0 1.5,235.14 7.25,273.77 9.99,67.11 42.12,91.05 74.39,88.55 l 77.4,-11.08 27.31,-4.85"
         style="fill:#26b6a6;fill-opacity:1;fill-rule:nonzero;stroke:none"
         id="path242" />
      <path
         d="m 3681.25,2479.83 c 0,0 -11.54,-54.2 -16.17,-63.11 -4.62,-8.9 -14.18,-11.43 -14.18,-11.43 l 0.81,38.12 29.54,36.42"
         style="fill:#17282f;fill-opacity:1;fill-rule:nonzero;stroke:none"
         id="path244" />
      <path
         d="m 3666.77,2557.46 c 0,0 12.43,2.13 22.11,-7.77 9.49,-9.71 4.19,-40.1 -7.63,-69.86 l -21.73,-2.5 7.25,80.13"
         style="fill:#17282f;fill-opacity:1;fill-rule:nonzero;stroke:none"
         id="path246" />
      <path
         d="m 3653,2477.31 c 4.36,-2.6 10.58,5.77 15.95,11.39 5.37,5.62 22.91,13.3 31.66,-5.13 8.92,-18.79 -7.72,-43.62 -21.53,-47.95 -23.8,-7.47 -27.37,7.79 -27.37,7.79 l -1.82,-85.84 c 0,0 -15.58,-38.13 -57.77,-43.85 -42.2,-5.72 -33.51,29.07 -19.65,46.12 l 0.07,26.12 c 0,0 -21.58,-3.27 -32.09,-1.64 -17.5,2.7 -28.52,16.51 -33.82,35.46 -8.53,30.43 -11.77,55 -4.53,114.84 7.93,65.59 84.21,66.27 125.42,40.34 41.2,-25.93 25.48,-97.65 25.48,-97.65"
         style="fill:#f6879f;fill-opacity:1;fill-rule:nonzero;stroke:none"
         id="path248" />
      <path
         d="m 3653,2469.98 c 2.19,-0.04 10.53,13.79 15.95,18.72 7.51,6.84 -2.18,68.76 -2.18,68.76 0,0 7.22,15.4 -7.25,31.33 -10.3,11.32 -27.5,12.58 -56.88,17.2 -15.41,2.42 -38.78,6.74 -54.17,9.6 -18.38,3.42 -33.59,7.03 -46.57,-4.24 -10.1,-8.78 -14.44,-24.29 -9,-36.51 1.27,-2.87 3.11,-5.46 5.21,-7.8 3.72,-4.13 7.93,-7.39 13.23,-9.1 0,0 8.01,-7.12 35.89,-10.51 27.88,-3.4 71.3,0.65 77.24,1.46 8.08,1.11 9.81,-6.73 14.17,-28.13 3.83,-18.79 7,-50.64 14.36,-50.78"
         style="fill:#17282f;fill-opacity:1;fill-rule:nonzero;stroke:none"
         id="path250" />
      <path
         d="m 3666.72,2552.65 26.35,14.14 c -3.74,7.55 -12.66,10.5 -19.94,6.6 -7.27,-3.91 -10.14,-13.19 -6.41,-20.74"
         style="fill:#17282f;fill-opacity:1;fill-rule:nonzero;stroke:none"
         id="path252" />
      <path
         d="m 3572.53,2385.96 c 0,0 39.07,7.87 52.73,15.13 9.14,4.86 16.67,13.29 18.88,18.69 0,0 -2.56,-11.6 -10.73,-22.04 -9.99,-12.77 -60.87,-22.17 -60.87,-22.17 l -0.01,10.39"
         style="fill:#f47089;fill-opacity:1;fill-rule:nonzero;stroke:none"
         id="path254" />
      <path
         d="m 3581.92,2487.08 c 0,-4.5 3.51,-8.12 7.83,-8.11 4.32,0.01 7.82,3.66 7.82,8.16 0,4.49 -3.5,8.12 -7.82,8.11 -4.32,-0.01 -7.83,-3.67 -7.83,-8.16"
         style="fill:#17282f;fill-opacity:1;fill-rule:nonzero;stroke:none"
         id="path256" />
      <path
         d="m 3590.22,2516.64 16.75,-9.25 c 2.47,4.82 0.72,10.79 -3.9,13.34 -4.63,2.55 -10.38,0.72 -12.85,-4.09"
         style="fill:#17282f;fill-opacity:1;fill-rule:nonzero;stroke:none"
         id="path258" />
      <path
         d="m 3576.07,2432.99 -17.87,-6.7 c 1.77,-5.12 7.2,-7.77 12.14,-5.92 4.93,1.85 7.5,7.5 5.73,12.62"
         style="fill:#f47089;fill-opacity:1;fill-rule:nonzero;stroke:none"
         id="path260" />
      <path
         d="m 3512.11,2510.12 15.27,11.76 c -3.12,4.38 -9.06,5.29 -13.28,2.04 -4.22,-3.25 -5.11,-9.43 -1.99,-13.8"
         style="fill:#17282f;fill-opacity:1;fill-rule:nonzero;stroke:none"
         id="path262" />
      <path
         d="m 3516.8,2489.31 c 0,-4.49 3.51,-8.13 7.83,-8.11 4.33,0.01 7.84,3.66 7.84,8.15 0,4.49 -3.51,8.13 -7.84,8.12 -4.32,-0.02 -7.83,-3.67 -7.83,-8.16"
         style="fill:#17282f;fill-opacity:1;fill-rule:nonzero;stroke:none"
         id="path264" />
      <path
         d="m 3556.7,2496.73 -2.58,-47.08 -24.58,8.38 z"
         style="fill:#f47089;fill-opacity:1;fill-rule:nonzero;stroke:none"
         id="path266" />
      <path
         d="m 3678.52,1264.81 v 7.17 c -4.79,-2.09 -15.95,-44.62 -35.84,-62.76 -15.82,-14.43 -37.39,-31.1 -42.88,-47.17 -5.71,-16.73 30.05,-25.97 44.82,-23.35 17.17,3.03 46.93,15.12 54.41,26.34 7.46,11.2 10.97,27.73 17.03,35.95 6.07,8.22 20.07,17.39 23.35,26.89 1.8,5.22 -0.34,16.66 -2.87,26.33 -2.33,8.85 -4.84,18.61 -7.87,17.77 -0.01,-1.08 0,-5.46 0,-5.46 -3.64,-4.03 -13.71,-8.04 -25.07,-8.48 -7.34,-0.28 -25.14,1.18 -25.08,6.77"
         style="fill:#17282f;fill-opacity:1;fill-rule:nonzero;stroke:none"
         id="path268" />
      <path
         d="m 3504.17,1344.22 c -2.61,-0.09 -4.73,-3.76 -10.47,-9.98 -6.95,-7.52 -18.29,-15.61 -29.49,-21.23 -18.78,-9.39 -55.29,-23.85 -71.81,-31.29 -10.32,-4.65 -9.84,-17.12 0.83,-24.21 10.67,-7.09 36.42,-12.21 67.35,-5.3 16.86,3.77 38.79,19.34 52.67,18.5 13.88,-0.84 39.86,-0.65 50.11,6.42 10.25,7.07 6.15,22.14 3.25,35.11 -3.16,14.14 -7.69,35.79 -12.37,34.83 l 0.15,-4.46 c -6.02,-9.12 -36.72,-12.85 -49.96,-6.13 l -0.26,7.74"
         style="fill:#17282f;fill-opacity:1;fill-rule:nonzero;stroke:none"
         id="path270" />
      <path
         d="m 3600.6,1878.27 c 0,0 -40.08,11.29 -69.82,40.04 0,0 13.47,-25.23 53.54,-48.7 l -15.06,-128.22 31.34,136.88"
         style="fill:#17282f;fill-opacity:1;fill-rule:nonzero;stroke:none"
         id="path272" />
      <path
         d="m 3319.9,2065.31 c 11.03,-2.83 21.7,-1.93 36.91,-7.16 13.41,-4.61 19.02,-6.28 32.2,-5.47 14.29,0.88 51.66,18.6 84.82,38.69 39.13,23.71 79.65,66.87 94.43,87.8 29.99,42.47 63.22,109.43 79.1,135.04 15.88,25.61 30.94,28.31 48.58,27.56 20.73,-0.87 34.01,-19.86 15.78,-59.29 -18.21,-39.43 -57.57,-105.58 -95.32,-151.22 -18.29,-22.12 -50.55,-54.93 -100.71,-85.6 -35.04,-21.42 -65.81,-32.04 -104.76,-45.08 -10.61,-3.55 -17.6,-8.82 -37.05,-17.98 -7.84,-3.7 -16.32,-7.99 -24.89,-9.17 -10.9,-1.5 -22,-1.77 -32.89,-0.11 -13.71,2.1 -27.1,7.35 -37.79,16.18 -5.89,4.86 -10.97,10.85 -14.02,17.84 -3.03,7 -3.94,15.06 -1.69,22.36 0.46,1.48 1.08,2.97 2.21,4.03 2.03,1.91 5.15,1.93 7.94,1.84 15.61,-0.54 32.35,-3.45 47.87,-2.34 13.11,0.93 22.24,3.41 20.36,5.26 -1.87,1.84 -9.54,0.76 -20.07,5.29 -10.05,4.32 -17.34,14.56 -14.47,20.01 2.86,5.45 2.42,4.36 13.46,1.52"
         style="fill:#f6879f;fill-opacity:1;fill-rule:nonzero;stroke:none"
         id="path274" />
      <path
         d="m 3689.18,2349.13 c 15.98,-0.78 36.59,-10.51 36.2,-37.74 -0.39,-27.23 -42.22,-106.33 -74.48,-151.49 0,0 -50.29,3.23 -76.73,41.14 0,0 47.02,74.76 59.78,98.63 11.44,21.4 31.92,50.59 55.23,49.46"
         style="fill:#26b6a6;fill-opacity:1;fill-rule:nonzero;stroke:none"
         id="path276" />
      <path
         d="m 3270.54,2235.01 c 0,0 21.13,10.52 48.28,6.05 13.15,-2.16 13.21,-46.04 -29.08,-59.9 -27.51,-9.01 -44.02,-5.04 -52.91,-27.67 0,0 -17.81,2.37 -13.77,27.67 4.05,25.31 15.09,48.38 33.53,70.14 12.13,14.32 12.93,26.36 18.88,22.29 6.73,-4.61 3.62,-17.91 3.62,-17.91 l -8.55,-20.67"
         style="fill:#f6879f;fill-opacity:1;fill-rule:nonzero;stroke:none"
         id="path278" />
    </g>
  </g>
</svg>
