<svg width="302" height="363" viewBox="0 0 302 363" fill="none" xmlns="http://www.w3.org/2000/svg">
<path d="M43.0209 245.169C66.4075 207.435 180.71 59.2117 224.089 3.23652L293.926 61.389L299.4 82.7384L278.618 91.2667L282.094 116.515L262.566 122.596L265.585 148.735L246.514 153.926L249.954 179.243L230.461 185.255L233.924 210.529L214.409 216.585L218.292 241.037L198.357 247.914L201.861 273.105L182.304 279.244L187.356 301.414L169.022 305.168L172.829 329.769C172.829 329.769 161.456 325.629 153.59 321.598L131.579 310.321M131.579 310.321L140.283 296.501L103.282 250.131L45.9239 240.36L3.16327 303.435L20.5669 314.092C20.5669 314.092 30.7855 301.771 41.1356 305.368C51.0373 308.81 69.8577 321.812 77.4965 328.636C85.6906 335.957 79.4341 348.546 79.4341 348.546L97.5227 359.577L131.579 310.321ZM53.9092 283.231L93.5191 313.095L105.003 294.663L65.3437 264.782L53.9092 283.231Z" stroke="#098D85" stroke-opacity="0.6" stroke-width="5" stroke-linejoin="round"/>
</svg>
